<mxfile host="app.diagrams.net" modified="2021-05-05T22:38:36.527Z" agent="5.0 (Windows NT 10.0; Win64; x64) AppleWebKit/537.36 (KHTML, like Gecko) Chrome/90.0.4430.93 Safari/537.36" etag="NavCKOEiy4NiYTv4zRhJ" version="14.6.10" type="github">
  <diagram id="C5RBs43oDa-KdzZeNtuy" name="Page-1">
    <mxGraphModel dx="886" dy="1647" grid="1" gridSize="10" guides="1" tooltips="1" connect="1" arrows="1" fold="1" page="1" pageScale="1" pageWidth="827" pageHeight="1169" math="0" shadow="0">
      <root>
        <mxCell id="WIyWlLk6GJQsqaUBKTNV-0" />
        <mxCell id="WIyWlLk6GJQsqaUBKTNV-1" parent="WIyWlLk6GJQsqaUBKTNV-0" />
        <mxCell id="DKZD0cLBIu26kfwJJ-IZ-2" style="edgeStyle=elbowEdgeStyle;rounded=0;orthogonalLoop=1;jettySize=auto;html=1;exitX=1;exitY=0.5;exitDx=0;exitDy=0;entryX=0;entryY=0.5;entryDx=0;entryDy=0;" edge="1" parent="WIyWlLk6GJQsqaUBKTNV-1" source="WIyWlLk6GJQsqaUBKTNV-3" target="DKZD0cLBIu26kfwJJ-IZ-1">
          <mxGeometry relative="1" as="geometry" />
        </mxCell>
        <mxCell id="WIyWlLk6GJQsqaUBKTNV-3" value="User enters flag game command" style="rounded=1;whiteSpace=wrap;html=1;fontSize=12;glass=0;strokeWidth=1;shadow=0;fillColor=#fff2cc;strokeColor=#d6b656;" parent="WIyWlLk6GJQsqaUBKTNV-1" vertex="1">
          <mxGeometry x="10" y="50" width="130" height="50" as="geometry" />
        </mxCell>
        <mxCell id="DKZD0cLBIu26kfwJJ-IZ-4" style="edgeStyle=orthogonalEdgeStyle;rounded=0;orthogonalLoop=1;jettySize=auto;html=1;entryX=0;entryY=0.5;entryDx=0;entryDy=0;" edge="1" parent="WIyWlLk6GJQsqaUBKTNV-1" source="DKZD0cLBIu26kfwJJ-IZ-1" target="DKZD0cLBIu26kfwJJ-IZ-3">
          <mxGeometry relative="1" as="geometry" />
        </mxCell>
        <mxCell id="DKZD0cLBIu26kfwJJ-IZ-37" style="edgeStyle=elbowEdgeStyle;rounded=0;jumpStyle=none;orthogonalLoop=1;jettySize=auto;elbow=vertical;html=1;strokeColor=#424242;strokeWidth=1;dashed=1;exitX=0.5;exitY=1;exitDx=0;exitDy=0;entryX=0;entryY=0.5;entryDx=0;entryDy=0;" edge="1" parent="WIyWlLk6GJQsqaUBKTNV-1" source="DKZD0cLBIu26kfwJJ-IZ-1" target="DKZD0cLBIu26kfwJJ-IZ-33">
          <mxGeometry relative="1" as="geometry">
            <mxPoint x="270" y="140" as="targetPoint" />
            <Array as="points">
              <mxPoint x="270" y="135" />
              <mxPoint x="240" y="150" />
              <mxPoint x="550" y="140" />
              <mxPoint x="360" y="130" />
            </Array>
          </mxGeometry>
        </mxCell>
        <mxCell id="DKZD0cLBIu26kfwJJ-IZ-1" value="Load data for random country" style="rounded=0;whiteSpace=wrap;html=1;fillColor=#f8cecc;strokeColor=#b85450;" vertex="1" parent="WIyWlLk6GJQsqaUBKTNV-1">
          <mxGeometry x="175" y="50" width="105" height="50" as="geometry" />
        </mxCell>
        <mxCell id="DKZD0cLBIu26kfwJJ-IZ-12" value="" style="edgeStyle=orthogonalEdgeStyle;rounded=0;jumpStyle=none;orthogonalLoop=1;jettySize=auto;html=1;strokeWidth=1;dashed=1;entryX=0;entryY=0.5;entryDx=0;entryDy=0;strokeColor=#424242;" edge="1" parent="WIyWlLk6GJQsqaUBKTNV-1" source="DKZD0cLBIu26kfwJJ-IZ-3" target="DKZD0cLBIu26kfwJJ-IZ-7">
          <mxGeometry relative="1" as="geometry">
            <mxPoint x="510" y="70" as="targetPoint" />
          </mxGeometry>
        </mxCell>
        <mxCell id="DKZD0cLBIu26kfwJJ-IZ-18" style="edgeStyle=elbowEdgeStyle;rounded=0;jumpStyle=none;orthogonalLoop=1;jettySize=auto;html=1;dashed=1;strokeColor=#424242;strokeWidth=1;" edge="1" parent="WIyWlLk6GJQsqaUBKTNV-1" source="DKZD0cLBIu26kfwJJ-IZ-3" target="DKZD0cLBIu26kfwJJ-IZ-17">
          <mxGeometry relative="1" as="geometry" />
        </mxCell>
        <mxCell id="DKZD0cLBIu26kfwJJ-IZ-3" value="Render flag and guess prompt" style="rounded=0;whiteSpace=wrap;html=1;fillColor=#d5e8d4;strokeColor=#82b366;" vertex="1" parent="WIyWlLk6GJQsqaUBKTNV-1">
          <mxGeometry x="310" y="50" width="110" height="50" as="geometry" />
        </mxCell>
        <mxCell id="DKZD0cLBIu26kfwJJ-IZ-29" style="edgeStyle=elbowEdgeStyle;rounded=0;jumpStyle=none;orthogonalLoop=1;jettySize=auto;elbow=vertical;html=1;strokeColor=#424242;strokeWidth=1;entryX=0.5;entryY=0;entryDx=0;entryDy=0;exitX=0.5;exitY=0;exitDx=0;exitDy=0;" edge="1" parent="WIyWlLk6GJQsqaUBKTNV-1" source="DKZD0cLBIu26kfwJJ-IZ-48" target="DKZD0cLBIu26kfwJJ-IZ-1">
          <mxGeometry relative="1" as="geometry">
            <mxPoint x="360" y="10" as="targetPoint" />
            <Array as="points">
              <mxPoint x="600" y="20" />
              <mxPoint x="620" y="30" />
              <mxPoint x="280" y="20" />
              <mxPoint x="370" y="30" />
              <mxPoint x="380" y="20" />
              <mxPoint x="370" y="30" />
              <mxPoint x="450" y="30" />
            </Array>
          </mxGeometry>
        </mxCell>
        <mxCell id="DKZD0cLBIu26kfwJJ-IZ-38" style="edgeStyle=elbowEdgeStyle;rounded=0;jumpStyle=none;orthogonalLoop=1;jettySize=auto;elbow=vertical;html=1;entryX=1;entryY=0.5;entryDx=0;entryDy=0;strokeColor=#424242;strokeWidth=1;" edge="1" parent="WIyWlLk6GJQsqaUBKTNV-1" source="DKZD0cLBIu26kfwJJ-IZ-7" target="DKZD0cLBIu26kfwJJ-IZ-33">
          <mxGeometry relative="1" as="geometry">
            <Array as="points">
              <mxPoint x="530" y="135" />
              <mxPoint x="470" y="135" />
            </Array>
          </mxGeometry>
        </mxCell>
        <mxCell id="DKZD0cLBIu26kfwJJ-IZ-55" style="edgeStyle=elbowEdgeStyle;rounded=0;jumpStyle=none;orthogonalLoop=1;jettySize=auto;html=1;entryX=0.5;entryY=1;entryDx=0;entryDy=0;strokeColor=#424242;strokeWidth=1;" edge="1" parent="WIyWlLk6GJQsqaUBKTNV-1" source="DKZD0cLBIu26kfwJJ-IZ-7" target="DKZD0cLBIu26kfwJJ-IZ-35">
          <mxGeometry relative="1" as="geometry" />
        </mxCell>
        <mxCell id="DKZD0cLBIu26kfwJJ-IZ-7" value="User enters guess" style="rounded=1;whiteSpace=wrap;html=1;fillColor=#fff2cc;strokeColor=#d6b656;" vertex="1" parent="WIyWlLk6GJQsqaUBKTNV-1">
          <mxGeometry x="470" y="50" width="120" height="50" as="geometry" />
        </mxCell>
        <mxCell id="DKZD0cLBIu26kfwJJ-IZ-32" style="edgeStyle=elbowEdgeStyle;rounded=0;jumpStyle=none;orthogonalLoop=1;jettySize=auto;elbow=vertical;html=1;entryX=0;entryY=0.5;entryDx=0;entryDy=0;strokeColor=#424242;strokeWidth=1;" edge="1" parent="WIyWlLk6GJQsqaUBKTNV-1" source="DKZD0cLBIu26kfwJJ-IZ-17" target="DKZD0cLBIu26kfwJJ-IZ-31">
          <mxGeometry relative="1" as="geometry" />
        </mxCell>
        <mxCell id="DKZD0cLBIu26kfwJJ-IZ-17" value="User exits game" style="rounded=1;whiteSpace=wrap;html=1;fillColor=#fff2cc;strokeColor=#d6b656;" vertex="1" parent="WIyWlLk6GJQsqaUBKTNV-1">
          <mxGeometry x="480" y="150" width="120" height="50" as="geometry" />
        </mxCell>
        <mxCell id="DKZD0cLBIu26kfwJJ-IZ-31" value="Render score and exit message" style="rounded=0;whiteSpace=wrap;html=1;fillColor=#d5e8d4;strokeColor=#82b366;" vertex="1" parent="WIyWlLk6GJQsqaUBKTNV-1">
          <mxGeometry x="630" y="150" width="110" height="50" as="geometry" />
        </mxCell>
        <mxCell id="DKZD0cLBIu26kfwJJ-IZ-33" value="Render country info" style="rounded=0;whiteSpace=wrap;html=1;fillColor=#d5e8d4;strokeColor=#82b366;" vertex="1" parent="WIyWlLk6GJQsqaUBKTNV-1">
          <mxGeometry x="310" y="110" width="110" height="50" as="geometry" />
        </mxCell>
        <mxCell id="DKZD0cLBIu26kfwJJ-IZ-35" value="Render guess result and current score" style="rounded=0;whiteSpace=wrap;html=1;fillColor=#d5e8d4;strokeColor=#82b366;" vertex="1" parent="WIyWlLk6GJQsqaUBKTNV-1">
          <mxGeometry x="475" y="-50" width="110" height="50" as="geometry" />
        </mxCell>
        <mxCell id="DKZD0cLBIu26kfwJJ-IZ-39" value="&lt;font style=&quot;font-size: 7px&quot;&gt;From state&lt;/font&gt;" style="text;html=1;strokeColor=none;fillColor=none;align=center;verticalAlign=middle;whiteSpace=wrap;rounded=0;" vertex="1" parent="WIyWlLk6GJQsqaUBKTNV-1">
          <mxGeometry x="240" y="110" width="40" height="20" as="geometry" />
        </mxCell>
        <mxCell id="DKZD0cLBIu26kfwJJ-IZ-52" style="edgeStyle=elbowEdgeStyle;rounded=0;jumpStyle=none;orthogonalLoop=1;jettySize=auto;html=1;entryX=0.5;entryY=0;entryDx=0;entryDy=0;strokeColor=#424242;strokeWidth=1;" edge="1" parent="WIyWlLk6GJQsqaUBKTNV-1" source="DKZD0cLBIu26kfwJJ-IZ-48" target="DKZD0cLBIu26kfwJJ-IZ-31">
          <mxGeometry relative="1" as="geometry" />
        </mxCell>
        <mxCell id="DKZD0cLBIu26kfwJJ-IZ-48" value="Game Over?" style="rounded=1;whiteSpace=wrap;html=1;fillColor=#dae8fc;strokeColor=#6c8ebf;" vertex="1" parent="WIyWlLk6GJQsqaUBKTNV-1">
          <mxGeometry x="645" y="60" width="80" height="30" as="geometry" />
        </mxCell>
        <mxCell id="DKZD0cLBIu26kfwJJ-IZ-49" value="" style="edgeStyle=elbowEdgeStyle;rounded=0;jumpStyle=none;orthogonalLoop=1;jettySize=auto;elbow=vertical;html=1;entryX=0;entryY=0.5;entryDx=0;entryDy=0;strokeColor=#424242;strokeWidth=1;endArrow=none;" edge="1" parent="WIyWlLk6GJQsqaUBKTNV-1" source="DKZD0cLBIu26kfwJJ-IZ-7" target="DKZD0cLBIu26kfwJJ-IZ-48">
          <mxGeometry relative="1" as="geometry">
            <mxPoint x="590" y="75.28571428571422" as="sourcePoint" />
            <mxPoint x="690" y="75" as="targetPoint" />
          </mxGeometry>
        </mxCell>
        <mxCell id="DKZD0cLBIu26kfwJJ-IZ-53" value="&lt;font style=&quot;font-size: 9px&quot;&gt;Yes&lt;/font&gt;" style="text;html=1;strokeColor=none;fillColor=none;align=center;verticalAlign=middle;whiteSpace=wrap;rounded=0;" vertex="1" parent="WIyWlLk6GJQsqaUBKTNV-1">
          <mxGeometry x="680" y="110" width="40" height="20" as="geometry" />
        </mxCell>
        <mxCell id="DKZD0cLBIu26kfwJJ-IZ-54" value="&lt;font style=&quot;font-size: 9px&quot;&gt;No&lt;/font&gt;" style="text;html=1;strokeColor=none;fillColor=none;align=center;verticalAlign=middle;whiteSpace=wrap;rounded=0;" vertex="1" parent="WIyWlLk6GJQsqaUBKTNV-1">
          <mxGeometry x="680" y="30" width="40" height="20" as="geometry" />
        </mxCell>
      </root>
    </mxGraphModel>
  </diagram>
</mxfile>
